G04*
G04 #@! TF.GenerationSoftware,Altium Limited,Altium Designer,24.5.2 (23)*
G04*
G04 Layer_Color=8388736*
%FSLAX44Y44*%
%MOMM*%
G71*
G04*
G04 #@! TF.SameCoordinates,94DAE4BB-7CB6-4CAD-B1A7-A745C2884CEA*
G04*
G04*
G04 #@! TF.FilePolarity,Negative*
G04*
G01*
G75*
%ADD14C,6.2910*%
%ADD15R,2.1600X1.0700*%
%ADD18R,2.4130X3.4290*%
%ADD19R,1.0557X1.6582*%
%ADD21R,1.8032X1.5032*%
%ADD22R,1.8032X2.2032*%
%ADD23R,3.7032X2.2032*%
%ADD24R,2.2000X2.2000*%
%ADD25C,2.2000*%
%ADD26C,1.3000*%
%ADD27R,1.3000X1.3000*%
%ADD28C,1.7272*%
G04:AMPARAMS|DCode=29|XSize=2.4532mm|YSize=2.4532mm|CornerRadius=0.6641mm|HoleSize=0mm|Usage=FLASHONLY|Rotation=90.000|XOffset=0mm|YOffset=0mm|HoleType=Round|Shape=RoundedRectangle|*
%AMROUNDEDRECTD29*
21,1,2.4532,1.1250,0,0,90.0*
21,1,1.1250,2.4532,0,0,90.0*
1,1,1.3282,0.5625,0.5625*
1,1,1.3282,0.5625,-0.5625*
1,1,1.3282,-0.5625,-0.5625*
1,1,1.3282,-0.5625,0.5625*
%
%ADD29ROUNDEDRECTD29*%
%ADD30C,2.4532*%
%ADD31R,1.5500X1.5500*%
%ADD32C,1.5500*%
%ADD33C,1.1032*%
%ADD34C,0.7032*%
G36*
X449200Y122000D02*
X430100D01*
Y134350D01*
X379300D01*
Y217650D01*
X430100D01*
Y230000D01*
X449200D01*
Y122000D01*
D02*
G37*
D14*
X414250Y176000D02*
D03*
D15*
X307500Y210000D02*
D03*
Y193000D02*
D03*
Y176000D02*
D03*
Y159000D02*
D03*
Y142000D02*
D03*
D18*
X736710Y62500D02*
D03*
X678290D02*
D03*
D19*
X805263Y42500D02*
D03*
X779738D02*
D03*
D21*
X778000Y102500D02*
D03*
Y77500D02*
D03*
D22*
X807000Y90000D02*
D03*
D23*
X515000Y130000D02*
D03*
Y220000D02*
D03*
D24*
X332800Y60000D02*
D03*
D25*
X542200D02*
D03*
D26*
X627500Y65000D02*
D03*
X90000Y60000D02*
D03*
X637500Y182500D02*
D03*
X182500Y60000D02*
D03*
X280000Y60000D02*
D03*
D27*
X592500Y65000D02*
D03*
X55000Y60000D02*
D03*
X602500Y182500D02*
D03*
X147500Y60000D02*
D03*
X245000Y60000D02*
D03*
D28*
X822500Y242500D02*
D03*
Y20000D02*
D03*
X20000D02*
D03*
Y242500D02*
D03*
D29*
X738500Y147500D02*
D03*
X102500Y207500D02*
D03*
D30*
X738500Y197500D02*
D03*
X102500Y157500D02*
D03*
D31*
X200000Y216000D02*
D03*
D32*
X251000D02*
D03*
X200000Y165000D02*
D03*
X251000D02*
D03*
D33*
X280000Y210000D02*
D03*
D34*
X495000Y92500D02*
D03*
X440000Y112500D02*
D03*
X595000Y140000D02*
D03*
X530000Y105000D02*
D03*
X790000Y60000D02*
D03*
X325000Y105000D02*
D03*
X295000Y127500D02*
D03*
X332500Y190000D02*
D03*
M02*
