G04*
G04 #@! TF.GenerationSoftware,Altium Limited,Altium Designer,24.5.2 (23)*
G04*
G04 Layer_Color=65535*
%FSLAX44Y44*%
%MOMM*%
G71*
G04*
G04 #@! TF.SameCoordinates,94DAE4BB-7CB6-4CAD-B1A7-A745C2884CEA*
G04*
G04*
G04 #@! TF.FilePolarity,Positive*
G04*
G01*
G75*
%ADD10C,0.2500*%
%ADD11C,0.1500*%
%ADD12C,0.2000*%
%ADD13C,0.2540*%
D10*
X291800Y210050D02*
G03*
X291800Y210050I-1250J0D01*
G01*
X765750Y102500D02*
G03*
X765750Y102500I-1250J0D01*
G01*
X516250Y234500D02*
G03*
X516250Y234500I-1250J0D01*
G01*
X171450Y216000D02*
G03*
X171450Y216000I-1250J0D01*
G01*
D11*
X652500Y65000D02*
G03*
X652500Y65000I-42500J0D01*
G01*
X115000Y60000D02*
G03*
X115000Y60000I-42500J0D01*
G01*
X662500Y182500D02*
G03*
X662500Y182500I-42500J0D01*
G01*
X207500Y60000D02*
G03*
X207500Y60000I-42500J0D01*
G01*
X305000Y60000D02*
G03*
X305000Y60000I-42500J0D01*
G01*
D12*
X552000Y123500D02*
G03*
X566500Y138000I0J14500D01*
G01*
X194244Y230800D02*
G03*
X256756Y230800I31256J-40300D01*
G01*
X390000Y86500D02*
X485000D01*
Y33500D02*
Y86500D01*
X390000Y33500D02*
X485000D01*
X390000D02*
Y86500D01*
X367500Y60000D02*
X390000D01*
X485000D02*
X507500D01*
X410500Y35000D02*
Y85000D01*
X344350Y123950D02*
X375550D01*
X344350D02*
Y228050D01*
X375550D01*
X775000Y88000D02*
Y92000D01*
Y66000D02*
Y67000D01*
Y113000D02*
Y114000D01*
X810000D01*
Y104000D02*
Y114000D01*
Y66000D02*
Y76000D01*
X775000Y66000D02*
X810000D01*
X673880Y83395D02*
Y96120D01*
Y28880D02*
Y41605D01*
Y28880D02*
X741120D01*
Y83395D02*
Y96120D01*
Y28880D02*
Y41605D01*
X673880Y96120D02*
X741120D01*
X577250Y40000D02*
Y90000D01*
X788016Y51250D02*
X796984D01*
X788016Y33750D02*
X796984D01*
X39750Y35000D02*
Y85000D01*
X536000Y123500D02*
X552000D01*
X485000D02*
X494000D01*
X536000Y226500D02*
X545000D01*
X477500D02*
X494000D01*
X463500Y145000D02*
X485000Y123500D01*
X545000Y226500D02*
X566500Y205000D01*
X463500Y212500D02*
X477500Y226500D01*
X566500Y138000D02*
Y205000D01*
X463500Y145000D02*
Y212500D01*
X728900Y222500D02*
X770900D01*
X808300D02*
X813500D01*
X769700Y228500D02*
X770900Y222500D01*
X808300D02*
X809500Y228500D01*
X769700D02*
X809500D01*
X676500Y222500D02*
X692100D01*
X690600Y228500D02*
X692100Y222500D01*
X728900D02*
X730400Y228500D01*
X690600D02*
X730400D01*
X813500Y122500D02*
Y222500D01*
X676500Y122500D02*
X813500D01*
X676500D02*
Y222500D01*
X586750Y157500D02*
Y207500D01*
X70100Y132500D02*
X112100D01*
X27500D02*
X32700D01*
X70100D02*
X71300Y126500D01*
X31500D02*
X32700Y132500D01*
X31500Y126500D02*
X71300D01*
X148900Y132500D02*
X164500D01*
X148900D02*
X150400Y126500D01*
X110600D02*
X112100Y132500D01*
X110600Y126500D02*
X150400D01*
X27500Y132500D02*
Y232500D01*
X164500D01*
Y132500D02*
Y232500D01*
X194244Y230800D02*
X256756D01*
X132250Y35000D02*
Y85000D01*
X229250Y35000D02*
Y85000D01*
D13*
X10872Y217460D02*
X17537D01*
X20869Y214128D01*
X17537Y210795D01*
X10872D01*
X15871D01*
Y217460D01*
X19203Y200799D02*
X20869Y202465D01*
Y205797D01*
X19203Y207463D01*
X12538D01*
X10872Y205797D01*
Y202465D01*
X12538Y200799D01*
X20869Y187470D02*
Y184137D01*
Y185804D01*
X10872D01*
Y187470D01*
Y184137D01*
Y179139D02*
X17537D01*
Y174141D01*
X15871Y172474D01*
X10872D01*
X7540Y169142D02*
X17537D01*
Y164144D01*
X15871Y162478D01*
X12538D01*
X10872Y164144D01*
Y169142D01*
X17537Y159145D02*
X12538D01*
X10872Y157479D01*
Y152481D01*
X17537D01*
X19203Y147483D02*
X17537D01*
Y149149D01*
Y145816D01*
Y147483D01*
X12538D01*
X10872Y145816D01*
X322274Y111299D02*
Y96064D01*
X329892D01*
X332431Y98603D01*
Y108760D01*
X329892Y111299D01*
X322274D01*
X347666Y96064D02*
X337509D01*
X347666Y106221D01*
Y108760D01*
X345127Y111299D01*
X340048D01*
X337509Y108760D01*
X290524Y254809D02*
Y242113D01*
X293063Y239574D01*
X298141D01*
X300681Y242113D01*
Y254809D01*
X305759Y239574D02*
X310837D01*
X308298D01*
Y254809D01*
X305759Y252270D01*
X822540Y141705D02*
X835869D01*
X829204Y148369D02*
Y135040D01*
X39961Y117578D02*
X37422Y120118D01*
X32343D01*
X29804Y117578D01*
Y107422D01*
X32343Y104882D01*
X37422D01*
X39961Y107422D01*
X45039Y117578D02*
X47578Y120118D01*
X52657D01*
X55196Y117578D01*
Y115039D01*
X52657Y112500D01*
X50118D01*
X52657D01*
X55196Y109961D01*
Y107422D01*
X52657Y104882D01*
X47578D01*
X45039Y107422D01*
X170128Y254555D02*
Y239320D01*
X177745D01*
X180285Y241859D01*
Y252016D01*
X177745Y254555D01*
X170128D01*
X185363Y239320D02*
X190441D01*
X187902D01*
Y254555D01*
X185363Y252016D01*
X779804Y7383D02*
Y22617D01*
X787422D01*
X789961Y20078D01*
Y15000D01*
X787422Y12461D01*
X779804D01*
X784883D02*
X789961Y7383D01*
X805196D02*
X795039D01*
X805196Y17539D01*
Y20078D01*
X802657Y22617D01*
X797578D01*
X795039Y20078D01*
X840117Y79843D02*
X824883D01*
Y87461D01*
X827422Y90000D01*
X832500D01*
X835039Y87461D01*
Y79843D01*
Y84922D02*
X840117Y90000D01*
Y95078D02*
Y100157D01*
Y97618D01*
X824883D01*
X827422Y95078D01*
X694804Y22617D02*
Y7383D01*
X704961D01*
X720196D02*
X710039D01*
X720196Y17539D01*
Y20078D01*
X717657Y22617D01*
X712578D01*
X710039Y20078D01*
X463752Y259889D02*
Y244654D01*
X473909D01*
X478987D02*
X484065D01*
X481526D01*
Y259889D01*
X478987Y257350D01*
X687461Y257617D02*
X682383D01*
X684922D01*
Y244922D01*
X682383Y242383D01*
X679843D01*
X677304Y244922D01*
X702696Y242383D02*
X692539D01*
X702696Y252539D01*
Y255078D01*
X700157Y257617D01*
X695078D01*
X692539Y255078D01*
X65000Y257617D02*
X59922D01*
X62461D01*
Y244922D01*
X59922Y242382D01*
X57382D01*
X54843Y244922D01*
X70078Y242382D02*
X75157D01*
X72618D01*
Y257617D01*
X70078Y255078D01*
X230577Y124762D02*
X228037Y127301D01*
X222959D01*
X220420Y124762D01*
Y114605D01*
X222959Y112066D01*
X228037D01*
X230577Y114605D01*
X245812Y127301D02*
X235655D01*
Y119684D01*
X240733Y122223D01*
X243273D01*
X245812Y119684D01*
Y114605D01*
X243273Y112066D01*
X238194D01*
X235655Y114605D01*
X132461Y117578D02*
X129922Y120118D01*
X124843D01*
X122304Y117578D01*
Y107422D01*
X124843Y104882D01*
X129922D01*
X132461Y107422D01*
X145157Y104882D02*
Y120118D01*
X137539Y112500D01*
X147696D01*
X589961Y255078D02*
X587422Y257617D01*
X582343D01*
X579804Y255078D01*
Y244922D01*
X582343Y242383D01*
X587422D01*
X589961Y244922D01*
X605196Y242383D02*
X595039D01*
X605196Y252539D01*
Y255078D01*
X602657Y257617D01*
X597578D01*
X595039Y255078D01*
X622500Y127578D02*
X619961Y130118D01*
X614883D01*
X612343Y127578D01*
Y117422D01*
X614883Y114882D01*
X619961D01*
X622500Y117422D01*
X627578Y114882D02*
X632657D01*
X630118D01*
Y130118D01*
X627578Y127578D01*
M02*
