M48
;Layer_Color=9474304
;FILE_FORMAT=4:3
METRIC,TZ
;TYPE=PLATED
T01F00S00C0.400
T02F00S00C0.600
T03F00S00C0.762
T04F00S00C0.800
T05F00S00C1.000
T06F00S00C1.450
T07F00S00C1.500
%
T01
X57750Y111500
X60750Y109250
X61500Y117750
X72250Y110000
X77750Y108000
X81250Y109250
X87750Y112750
X107250Y104750
T02
X56250Y119750
T03
X30250Y100750
X110500
Y123000
X30250
T04
X33750Y104750
X37250
X43000
X46500
X52750Y104750
X56250
X87500Y105250
X91000
X92000Y117000
X88500
T05
X48250Y115250
X53350
Y120350
X48250
T06
X61530Y104750
X82470
T07
X38500Y114500
X102100Y113500
Y118500
X38500Y119500
M30
