G04*
G04 #@! TF.GenerationSoftware,Altium Limited,Altium Designer,24.5.2 (23)*
G04*
G04 Layer_Color=12632256*
%FSLAX44Y44*%
%MOMM*%
G71*
G04*
G04 #@! TF.SameCoordinates,94DAE4BB-7CB6-4CAD-B1A7-A745C2884CEA*
G04*
G04*
G04 #@! TF.FilePolarity,Positive*
G04*
G01*
G75*
%ADD24R,2.2000X2.2000*%
%ADD25C,2.2000*%
%ADD26C,1.3000*%
%ADD27R,1.3000X1.3000*%
%ADD31R,1.5500X1.5500*%
%ADD32C,1.5500*%
%ADD37C,1.5240*%
G04:AMPARAMS|DCode=38|XSize=2.25mm|YSize=2.25mm|CornerRadius=0.5625mm|HoleSize=0mm|Usage=FLASHONLY|Rotation=90.000|XOffset=0mm|YOffset=0mm|HoleType=Round|Shape=RoundedRectangle|*
%AMROUNDEDRECTD38*
21,1,2.2500,1.1250,0,0,90.0*
21,1,1.1250,2.2500,0,0,90.0*
1,1,1.1250,0.5625,0.5625*
1,1,1.1250,0.5625,-0.5625*
1,1,1.1250,-0.5625,-0.5625*
1,1,1.1250,-0.5625,0.5625*
%
%ADD38ROUNDEDRECTD38*%
%ADD39C,2.2500*%
D24*
X332800Y60000D02*
D03*
D25*
X542200D02*
D03*
D26*
X627500Y65000D02*
D03*
X90000Y60000D02*
D03*
X637500Y182500D02*
D03*
X182500Y60000D02*
D03*
X280000Y60000D02*
D03*
D27*
X592500Y65000D02*
D03*
X55000Y60000D02*
D03*
X602500Y182500D02*
D03*
X147500Y60000D02*
D03*
X245000Y60000D02*
D03*
D31*
X200000Y216000D02*
D03*
D32*
X251000D02*
D03*
X200000Y165000D02*
D03*
X251000D02*
D03*
D37*
X822500Y242500D02*
D03*
Y20000D02*
D03*
X20000D02*
D03*
Y242500D02*
D03*
D38*
X738500Y147500D02*
D03*
X102500Y207500D02*
D03*
D39*
X738500Y197500D02*
D03*
X102500Y157500D02*
D03*
M02*
